<svg xmlns="http://www.w3.org/2000/svg" width="120" height="60" viewBox="0 0 144 32">
  <g fill="none" fill-rule="evenodd">
    <g fill="#1156FB">
      <path d="M27.7461341,10.1455029 L29.5623464,8.9802049 C29.8343396,8.83449061 30.0846067,8.85530694 30.3144012,9.02183755 L31.9434355,10.0622376 C32.3399355,10.2912171 32.7368533,10.2704008 33.1751341,10.0206049 L38.7716752,6.50389469 C39.1890656,6.21288245 39.209956,5.9422702 38.813456,5.67165796 L30.2935108,0.303127347 C30.0219355,0.157829388 29.7507779,0.178229388 29.4792026,0.34476 L21.042819,5.65084163 C20.9174766,5.73410694 20.9174766,5.81737224 21.0219286,5.90063755 L27.7461341,10.1455029 Z"/>
      <path d="M21.0218033,5.90055429 C20.9173512,5.81728898 20.9173512,5.73402367 21.0426937,5.65075837 L20.9382416,5.73402367 C20.8755704,5.77565633 20.8342074,5.83810531 20.8342074,5.90055429 L20.8342074,13.9739584 C20.8342074,14.1196727 20.8755704,14.202938 20.9591321,14.2653869 L32.3607005,21.4441053 L39.1053786,25.6889706 C39.2098307,25.7514196 39.1893581,25.8346849 39.0640156,25.9387665 L39.1893581,25.8555012 C39.2520293,25.8138686 39.2729197,25.7514196 39.2938101,25.6889706 L39.2938101,17.6155665 C39.2729197,17.4698522 39.2307211,17.3865869 39.1475773,17.324138 L27.7460088,10.1454196 L21.0218033,5.90055429 Z" opacity=".83"/>
      <path d="M28.163441 21.5482702C27.766941 21.3192906 27.3491327 21.3192906 26.9317423 21.5690865L21.3352012 25.0857967C21.2307492 25.1478294 21.1680779 25.2310947 21.1054067 25.2935437 20.9800642 25.439258 20.9800642 25.6057886 21.1054067 25.7515029 21.1471875 25.8139518 21.2098588 25.8555845 21.2934204 25.9180335L28.9990574 30.7661559C29.7089136 31.2028824 30.5027492 31.2028824 31.4002012 30.7661559L39.0640574 25.9384335C39.1893999 25.8347682 39.2098725 25.7515029 39.1054204 25.6890539L32.3607423 21.4441886 30.5441122 22.6094865C30.2725368 22.7343845 30.0218519 22.7135682 29.7920574 22.5678539L28.163441 21.5482702 28.163441 21.5482702zM51.0916697 9.10501959C51.3427725 8.95930531 51.5934574 8.98012163 51.8228341 9.14665224L53.4518684 10.1662359C53.8483684 10.3952155 54.2661766 10.3952155 54.7048752 10.1454196L60.2805259 6.60789306C60.6979163 6.33769714 60.7183889 6.0670849 60.3218889 5.79647265L51.8023615.427942041C51.5303684.282644082 51.2801012.303044082 51.0085259.448758367L42.5512519 5.77565633C42.4259095 5.85892163 42.4259095 5.94218694 42.5303615 6.02545224L49.254567 10.2495012 51.0916697 9.10501959z"/>
      <path d="M42.4468416,5.83827184 C42.3845882,5.87990449 42.3423896,5.94235347 42.3423896,6.00480245 L42.3423896,14.0782065 C42.3423896,14.2239208 42.3845882,14.3280024 42.4677321,14.3900351 L53.8906088,21.5691698 L60.6139786,25.7932188 C60.7184307,25.8764841 60.6979581,25.9597494 60.5726156,26.0425984 L60.6979581,25.9801494 C60.7606293,25.9177004 60.8024101,25.8764841 60.8024101,25.8136188 L60.8024101,17.7402147 C60.7815197,17.5949167 60.7393211,17.4908351 60.6561773,17.4283861 L49.2546088,10.2496678 L42.5304033,6.02561878 C42.4259512,5.94235347 42.4259512,5.85908816 42.5512937,5.77582286 L42.4468416,5.83827184 Z" opacity=".83"/>
      <path d="M42.6348553 25.4186082C42.4886225 25.5643224 42.4886225 25.7100367 42.6139649 25.8553347 42.6557458 25.9177837 42.718417 25.9598327 42.8224512 26.0218653L50.5071978 30.8704041C51.2174718 31.3071306 52.0108896 31.3071306 52.9087595 30.8704041L60.5726156 26.0426816C60.6979581 25.9598327 60.7184307 25.8765673 60.6139786 25.7928857L53.890191 21.5688367 52.0526704 22.7133184C51.7810951 22.8590327 51.5304101 22.8382163 51.3006156 22.692502L49.6719992 21.6525184C49.2754992 21.4235388 48.8785814 21.4235388 48.4403005 21.6937347L42.8646499 25.2104449C42.7601978 25.2728939 42.6766362 25.3561592 42.6348553 25.4186082zM8.88937123 22.2973665L7.0727411 21.0904359 7.0727411 29.8507788 8.80580959 30.9319788C9.07738493 31.0989257 9.34896027 31.119742 9.62053562 30.9744441L18.1400547 25.6059135C18.5160821 25.3353012 18.4951916 25.0438727 18.0986916 24.7732604L12.5017411 21.2569665C12.0634603 21.0071706 11.6665425 21.0071706 11.2700425 21.2361502L9.64100822 22.2557339C9.41163151 22.4014482 9.16094658 22.4222645 8.88937123 22.2973665M18.1402636 5.69255755L9.62032671.324026939C9.34875137.178312653 9.07759384.178312653 8.80601849.344843265L7.07253219 1.44769224 7.07253219 10.1872188 8.88916233 9.00110449C9.16073767 8.8553902 9.4114226 8.87620653 9.64121712 9.04273714L11.2698336 10.0623208C11.6667514 10.2913004 12.0636692 10.2700678 12.50195 10.0206882L18.0984827 6.50397796C18.4954005 6.23378204 18.516291 5.9631698 18.1402636 5.69255755z"/>
      <path d="M0.327770548,5.90063755 L0.265099315,5.90063755 L0.265099315,15.3058702 L0.265099315,15.3475029 L0.265099315,15.9715763 L0.265099315,16.013209 L0.265099315,25.376809 L0.327770548,25.376809 C0.306880137,25.3976253 0.285989726,25.439258 0.265099315,25.4600743 C0.244208904,25.5017069 0.285989726,25.5641559 0.36955137,25.6266049 L7.07286644,29.8506539 L7.07286644,21.090311 L7.07286644,20.6119518 L7.07286644,20.4662376 L7.07286644,15.4099518 L7.07286644,11.7475273 L7.07286644,10.9777396 L7.07286644,10.873658 L7.07286644,10.7071273 L7.07286644,10.2079518 L7.07286644,10.1871355 L7.07286644,1.44760898 L0.36955137,5.67165796 C0.285989726,5.73410694 0.244208904,5.77573959 0.265099315,5.83818857 C0.285989726,5.8590049 0.306880137,5.87982122 0.327770548,5.90063755" opacity=".831"/>
    </g>
    <path fill="#393A3E" d="M78.34,7.008 L79.972,7.008 L87.124,24 L85.348,24 L83.5,19.488 L74.5,19.488 L72.58,24 L70.924,24 L78.34,7.008 Z M79.084,8.736 L75.124,18.048 L82.924,18.048 L79.084,8.736 Z M98.548,20.88 C98.548,21.088001 98.5559999,21.3399985 98.572,21.636 C98.5880001,21.9320015 98.6,22.2319985 98.608,22.536 C98.616,22.8400015 98.6279999,23.1239987 98.644,23.388 C98.6600001,23.6520013 98.668,23.8559993 98.668,24 L97.228,24 C97.2119999,23.5839979 97.2,23.1840019 97.192,22.8 C97.184,22.4159981 97.1640002,22.1680006 97.132,22.056 L97.06,22.056 C96.7719986,22.664003 96.2920034,23.1879978 95.62,23.628 C94.9479966,24.0680022 94.1640045,24.288 93.268,24.288 C92.4039957,24.288 91.6960028,24.1520014 91.144,23.88 C90.5919972,23.6079986 90.1600016,23.2520022 89.848,22.812 C89.5359984,22.3719978 89.3240006,21.8640029 89.212,21.288 C89.0999994,20.7119971 89.044,20.120003 89.044,19.512 L89.044,12.912 L90.484,12.912 L90.484,19.44 C90.484,19.8880022 90.5239996,20.3239979 90.604,20.748 C90.6840004,21.1720021 90.823999,21.5519983 91.024,21.888 C91.224001,22.2240017 91.5039982,22.491999 91.864,22.692 C92.2240018,22.892001 92.6919971,22.992 93.268,22.992 C93.7960026,22.992 94.2959976,22.9000009 94.768,22.716 C95.2400024,22.5319991 95.6479983,22.2520019 95.992,21.876 C96.3360017,21.4999981 96.607999,21.0280028 96.808,20.46 C97.008001,19.8919972 97.108,19.2240038 97.108,18.456 L97.108,12.912 L98.548,12.912 L98.548,20.88 Z M107.932,14.208 L104.764,14.208 L104.764,21.432 C104.764,21.9280025 104.899999,22.3119986 105.172,22.584 C105.444001,22.8560014 105.819998,22.992 106.3,22.992 C106.572001,22.992 106.847999,22.9560004 107.128,22.884 C107.408001,22.8119996 107.675999,22.7200006 107.932,22.608 L108.052,23.904 C107.779999,24.0000005 107.468002,24.0879996 107.116,24.168 C106.763998,24.2480004 106.452001,24.288 106.18,24.288 C105.667997,24.288 105.228002,24.2120008 104.86,24.06 C104.491998,23.9079992 104.196001,23.7040013 103.972,23.448 C103.747999,23.1919987 103.584001,22.8920017 103.48,22.548 C103.375999,22.2039983 103.324,21.832002 103.324,21.432 L103.324,14.208 L100.924,14.208 L100.924,12.912 L103.324,12.912 L103.324,9.72 L104.764,9.72 L104.764,12.912 L107.932,12.912 L107.932,14.208 Z M110.524,5.856 L111.964,5.856 L111.964,14.856 L112.012,14.856 C112.300001,14.247997 112.779997,13.7240022 113.452,13.284 C114.124003,12.8439978 114.907996,12.624 115.804,12.624 C116.668004,12.624 117.371997,12.7599986 117.916,13.032 C118.460003,13.3040014 118.887998,13.6599978 119.2,14.1 C119.512002,14.5400022 119.727999,15.0479971 119.848,15.624 C119.968001,16.2000029 120.028,16.791997 120.028,17.4 L120.028,24 L118.588,24 L118.588,17.472 C118.588,17.0239978 118.548,16.5880021 118.468,16.164 C118.388,15.7399979 118.248001,15.3600017 118.048,15.024 C117.847999,14.6879983 117.568002,14.420001 117.208,14.22 C116.847998,14.019999 116.380003,13.92 115.804,13.92 C115.275997,13.92 114.776002,14.0119991 114.304,14.196 C113.831998,14.3800009 113.424002,14.6599981 113.08,15.036 C112.735998,15.4120019 112.464001,15.8839972 112.264,16.452 C112.063999,17.0200028 111.964,17.6879962 111.964,18.456 L111.964,24 L110.524,24 L110.524,5.856 Z M123.244,18.456 C123.244,17.6079958 123.387999,16.8280036 123.676,16.116 C123.964001,15.4039964 124.363997,14.7880026 124.876,14.268 C125.388003,13.7479974 126.003996,13.3440014 126.724,13.056 C127.444004,12.7679986 128.227996,12.624 129.076,12.624 C129.924004,12.624 130.703996,12.7679986 131.416,13.056 C132.128004,13.3440014 132.743997,13.7479974 133.264,14.268 C133.784003,14.7880026 134.187999,15.4039964 134.476,16.116 C134.764001,16.8280036 134.908,17.6079958 134.908,18.456 C134.908,19.3040042 134.764001,20.0839964 134.476,20.796 C134.187999,21.5080036 133.784003,22.1239974 133.264,22.644 C132.743997,23.1640026 132.128004,23.5679986 131.416,23.856 C130.703996,24.1440014 129.924004,24.288 129.076,24.288 C128.227996,24.288 127.444004,24.1440014 126.724,23.856 C126.003996,23.5679986 125.388003,23.1640026 124.876,22.644 C124.363997,22.1239974 123.964001,21.5080036 123.676,20.796 C123.387999,20.0839964 123.244,19.3040042 123.244,18.456 Z M124.684,18.456 C124.684,19.0800031 124.783999,19.6679972 124.984,20.22 C125.184001,20.7720028 125.475998,21.251998 125.86,21.66 C126.244002,22.068002 126.707997,22.3919988 127.252,22.632 C127.796003,22.8720012 128.403997,22.992 129.076,22.992 C129.748003,22.992 130.355997,22.8720012 130.9,22.632 C131.444003,22.3919988 131.907998,22.068002 132.292,21.66 C132.676002,21.251998 132.967999,20.7720028 133.168,20.22 C133.368001,19.6679972 133.468,19.0800031 133.468,18.456 C133.468,17.8319969 133.368001,17.2440028 133.168,16.692 C132.967999,16.1399972 132.676002,15.660002 132.292,15.252 C131.907998,14.843998 131.444003,14.5200012 130.9,14.28 C130.355997,14.0399988 129.748003,13.92 129.076,13.92 C128.403997,13.92 127.796003,14.0399988 127.252,14.28 C126.707997,14.5200012 126.244002,14.843998 125.86,15.252 C125.475998,15.660002 125.184001,16.1399972 124.984,16.692 C124.783999,17.2440028 124.684,17.8319969 124.684,18.456 Z M138.124,16.032 C138.124,15.823999 138.116,15.5720015 138.1,15.276 C138.084,14.9799985 138.072,14.6800015 138.064,14.376 C138.056,14.0719985 138.044,13.7880013 138.028,13.524 C138.012,13.2599987 138.004,13.0560007 138.004,12.912 L139.444,12.912 C139.46,13.3280021 139.472,13.7279981 139.48,14.112 C139.488,14.4960019 139.508,14.7439994 139.54,14.856 C139.908002,14.1999967 140.379997,13.6640021 140.956,13.248 C141.532003,12.8319979 142.235996,12.624 143.068,12.624 C143.212001,12.624 143.351999,12.6359999 143.488,12.66 C143.624001,12.6840001 143.763999,12.7119998 143.908,12.744 L143.74,14.16 C143.547999,14.0959997 143.364001,14.064 143.188,14.064 C142.563997,14.064 142.024002,14.163999 141.568,14.364 C141.111998,14.564001 140.736001,14.8399982 140.44,15.192 C140.143999,15.5440018 139.924001,15.9559976 139.78,16.428 C139.635999,16.9000024 139.564,17.4079973 139.564,17.952 L139.564,24 L138.124,24 L138.124,16.032 Z"/>
  </g>
</svg>
